<svg height="125" viewBox="0 0 200 125" width="200" xmlns="http://www.w3.org/2000/svg" xmlns:xlink="http://www.w3.org/1999/xlink"><defs><path id="f" d="M 2 -8.67 L -5.37 0.21 C -5.56 0.45 -5.53 0.8 -5.29 1 C -5.19 1.08 -5.07 1.13 -4.94 1.13 H -2.43 C -2.12 1.13 -1.87 1.38 -1.87 1.69 C -1.87 1.72 -1.87 1.75 -1.88 1.78 L -2.99 8.46 C -3.04 8.77 -2.84 9.06 -2.53 9.11 C -2.33 9.14 -2.13 9.07 -2 8.91 L 5.38 -0.21 C 5.57 -0.45 5.54 -0.8 5.3 -1 C 5.2 -1.08 5.07 -1.12 4.94 -1.12 H 2.6 C 2.29 -1.12 2.04 -1.38 2.04 -1.69 C 2.04 -1.71 2.05 -1.74 2.05 -1.77 L 2.98 -8.23 C 3.03 -8.54 2.82 -8.83 2.51 -8.87 C 2.32 -8.9 2.12 -8.83 2 -8.67 Z"/></defs><style>svg&gt;g{transform:scale(var(--s,1)) translate(var(--x),var(--y));transform-origin:var(--x) var(--y);opacity:var(--o,1);fill:#219cfb;--k:calc(-1 * var(--i));--bdur:var(--d,3s);--bdel:calc(.2s * var(--k));--mdur:calc(10 * var(--bdur));--mdel:calc(var(--bdel) + calc(var(--bdur) * var(--k)))}g&gt;g{animation:var(--mdur) steps(1) var(--mdel) infinite move}g&gt;g&gt;use{animation:var(--bdur) ease var(--bdel) infinite blink}@keyframes blink{0%,to{opacity:0;transform:scale(.1)}45%,55%{opacity:1;transform:scale(1)}}@keyframes move{0%,to{transform:translate(0,0)}10%{transform:translate(4px,-6px)}20%{transform:translate(-2px,5px)}30%{transform:translate(6px,3px)}40%{transform:translate(-7px,-4px)}50%{transform:translate(3px,7px)}60%{transform:translate(1px,-3px)}70%{transform:translate(-5px,2px)}80%{transform:translate(2px,-1px)}90%{transform:translate(-6px,6px)}}</style><use xlink:href="#f" x="24.75" y="15.375" transform="scale(4)" fill="#219cfb"/><g class="s" style="--x:133px;--y:19.8px;--s:.97;--o:0.69;--i:0;--d:2.3s"><g><use xlink:href="#f"/></g></g><g class="s" style="--x:47px;--y:42.6px;--s:.94;--i:1;--d:4.6s"><g><use xlink:href="#f"/></g></g><g class="s" style="--x:77.4px;--y:22px;--s:0.67;--o:.18;--i:2;--d:3.5s"><g><use xlink:href="#f"/></g></g><g class="s" style="--x:177.5px;--y:67px;--s:0.67;--o:.34;--i:3;--d:2.8s"><g><use xlink:href="#f"/></g></g><g class="s" style="--x:146.5px;--y:49.9px;--s:0.67;--i:4;--d:4.2s"><g><use xlink:href="#f"/></g></g><g class="s" style="--x:24.5px;--y:78px;--s:0.67;--o:0.38;--i:5;--d:3.9s"><g><use xlink:href="#f"/></g></g><g class="s" style="--x:141px;--y:80.6px;--s:.94;--o:0.34;--i:6;--d:4.8s"><g><use xlink:href="#f"/></g></g><g class="s" style="--x:113px;--y:104.4px;--s:0.72;--i:7;--d:2.1s"><g><use xlink:href="#f"/></g></g><g class="s" style="--x:66px;--y:84.4px;--s:0.72;--i:8;--d:3.2s"><g><use xlink:href="#f"/></g></g></svg>